<svg xmlns="http://www.w3.org/2000/svg" fill="none" viewBox="0 0 78 80" height="80" width="78">
<g clip-path="url(#clip0_115_2889)">
<path fill="#44444A" d="M10 0H68C73.522 0 78 4.476 78 9.999V70C78 75.523 73.522 79.999 68 79.999H10C4.477 79.999 0 75.523 0 70V9.999C0 4.476 4.477 0 10 0Z" clip-rule="evenodd" fill-rule="evenodd"></path>
<path fill="white" d="M69.985 39.176L69.968 42.256C69.968 42.388 69.922 42.516 69.841 42.616C69.828 42.632 69.816 42.647 69.802 42.661C69.696 42.768 69.552 42.827 69.404 42.823L68.505 42.82L68.497 44.155C68.497 44.29 68.449 44.415 68.371 44.512C68.268 44.642 68.109 44.724 67.933 44.721L67.214 44.718C67.071 44.717 66.935 44.656 66.832 44.557C66.735 44.634 66.622 44.69 66.489 44.69L65.954 44.686C65.805 44.685 65.663 44.623 65.558 44.516C65.454 44.407 65.396 44.261 65.396 44.109L65.4 43.359L65.007 43.19L64.994 44.8C64.994 44.828 64.984 44.853 64.98 44.879C64.973 45.001 64.94 45.117 64.868 45.208C64.782 45.314 64.66 45.389 64.516 45.411C63.909 45.503 63.301 45.583 62.693 45.652C61.956 45.735 61.203 45.801 60.455 45.854C59.745 45.899 59.012 45.937 58.275 45.957C57.604 45.977 56.932 45.983 56.257 45.981H56.201C56.2 45.981 56.2 45.981 56.198 45.981H56.196C56.179 45.981 56.163 45.971 56.148 45.97L56.145 45.981H56.09C56.084 45.981 56.036 45.98 56.036 45.98C55.412 45.977 54.784 45.964 54.156 45.942C53.588 45.923 53.019 45.897 52.451 45.862C51.936 45.832 51.421 45.796 50.906 45.755C50.438 45.717 49.97 45.674 49.502 45.626C49.076 45.581 48.649 45.535 48.223 45.484C47.833 45.435 47.444 45.384 47.054 45.33C46.7 45.281 46.343 45.227 45.988 45.171C45.662 45.12 45.335 45.066 45.009 45.009C44.712 44.957 44.413 44.904 44.114 44.846C43.84 44.795 43.566 44.74 43.293 44.684C43.04 44.633 42.787 44.578 42.532 44.522C42.296 44.471 42.059 44.417 41.823 44.362C41.603 44.311 41.383 44.258 41.163 44.204C40.963 44.155 40.761 44.104 40.562 44.053C40.377 44.004 40.191 43.956 40.004 43.906L39.632 43.804L39.021 43.878C39.021 43.878 39.02 43.878 39.02 43.879H39.012C39.007 43.88 39.003 43.878 38.999 43.879C38.992 43.879 38.983 43.878 38.975 43.879C38.973 43.879 38.97 43.88 38.966 43.88C38.962 43.88 38.96 43.879 38.957 43.878C38.929 43.879 38.902 43.881 38.874 43.878L38.286 43.798C38.238 43.811 38.191 43.823 38.146 43.835C37.923 43.893 37.7 43.948 37.477 44.002C37.229 44.062 36.981 44.12 36.731 44.179C36.459 44.241 36.187 44.3 35.915 44.361C35.614 44.423 35.313 44.486 35.012 44.545C34.675 44.612 34.338 44.674 34 44.735C33.625 44.801 33.248 44.865 32.871 44.924C32.447 44.993 32.025 45.054 31.602 45.112C31.126 45.177 30.651 45.236 30.173 45.291C29.634 45.353 29.094 45.407 28.553 45.455C27.968 45.506 27.382 45.552 26.798 45.589C26.235 45.626 25.673 45.654 25.112 45.677C24.608 45.698 24.105 45.711 23.604 45.72C23.155 45.728 22.707 45.732 22.26 45.731L21.777 45.728H21.776C21.776 45.728 21.724 45.728 21.724 45.726C21.716 45.726 21.707 45.723 21.699 45.72C21.691 45.723 21.686 45.726 21.677 45.726L21.319 45.723C20.955 45.717 20.592 45.709 20.228 45.696C19.9 45.686 19.57 45.671 19.241 45.655C18.942 45.641 18.643 45.624 18.345 45.604C18.073 45.587 17.8 45.568 17.528 45.545C17.279 45.525 17.031 45.504 16.784 45.48C16.557 45.458 16.332 45.436 16.105 45.411C15.9 45.389 15.695 45.365 15.49 45.341L13.346 45.034C13.071 44.987 12.887 44.74 12.888 44.465C12.885 44.447 12.877 44.432 12.877 44.414L12.89 42.885L12.725 42.971L12.72 43.668C12.72 43.806 12.673 43.93 12.595 44.028C12.491 44.157 12.333 44.239 12.157 44.239L11.769 44.234C11.62 44.234 11.478 44.172 11.373 44.065C11.294 43.982 11.251 43.874 11.23 43.763C11.215 43.865 11.18 43.961 11.119 44.035C11.016 44.165 10.859 44.248 10.682 44.247L10.156 44.242C10.007 44.241 9.86601 44.181 9.76201 44.073C9.65701 43.963 9.59901 43.818 9.59901 43.666L9.60501 42.653L9.21301 42.649C9.06401 42.648 8.92101 42.585 8.81701 42.478C8.78901 42.449 8.77301 42.41 8.75101 42.376L8.55501 42.375C8.40501 42.372 8.26301 42.312 8.15801 42.203C8.05301 42.095 7.99701 41.95 7.99701 41.797L8.01401 38.72C8.01601 38.405 8.26801 38.15 8.57801 38.152L8.77601 38.153C8.79801 38.119 8.81401 38.081 8.84301 38.053C8.94801 37.945 9.09101 37.887 9.23901 37.887L9.63301 37.891L9.63801 36.876C9.63901 36.725 9.69801 36.582 9.80401 36.473C9.91101 36.366 10.054 36.306 10.202 36.307L10.727 36.312C11.01 36.313 11.232 36.532 11.27 36.81C11.29 36.696 11.333 36.589 11.417 36.504C11.522 36.397 11.665 36.338 11.813 36.339L12.203 36.342C12.513 36.345 12.761 36.602 12.76 36.919L12.757 37.482L12.933 37.564L12.943 36.302C12.943 36.301 12.946 36.298 12.946 36.296H12.943C12.943 36.296 12.943 36.294 12.943 36.293C12.943 36.284 12.943 36.229 12.943 36.226C12.944 36.214 12.95 36.204 12.95 36.192C12.918 35.888 13.124 35.609 13.422 35.564L15.006 35.351C15.192 35.328 15.377 35.308 15.563 35.288C15.767 35.267 15.971 35.247 16.176 35.228C16.402 35.205 16.628 35.186 16.854 35.168C17.102 35.148 17.349 35.131 17.598 35.114C17.869 35.096 18.14 35.08 18.412 35.067C18.711 35.051 19.009 35.038 19.308 35.029C19.636 35.017 19.963 35.009 20.294 35.002C20.656 34.997 21.017 34.992 21.382 34.992L21.737 34.993H21.877L22.319 34.998C22.766 35.004 23.213 35.013 23.66 35.029C24.161 35.045 24.662 35.066 25.164 35.094C25.724 35.124 26.286 35.161 26.845 35.205C27.429 35.251 28.013 35.305 28.595 35.366C29.135 35.423 29.674 35.485 30.212 35.554C30.686 35.615 31.161 35.682 31.635 35.754C32.057 35.818 32.477 35.887 32.899 35.96C33.276 36.025 33.649 36.095 34.024 36.166C34.36 36.231 34.696 36.301 35.032 36.371C35.331 36.435 35.632 36.501 35.932 36.571C36.203 36.632 36.473 36.696 36.744 36.763C36.992 36.823 37.24 36.887 37.487 36.951C37.709 37.008 37.93 37.067 38.152 37.127L38.314 37.172C38.518 37.147 38.723 37.119 38.926 37.096C38.95 37.093 38.971 37.101 38.994 37.101C39.018 37.101 39.038 37.093 39.063 37.096L39.632 37.182L40.012 37.083C40.198 37.036 40.385 36.991 40.572 36.945C40.773 36.896 40.974 36.85 41.175 36.803C41.397 36.752 41.617 36.703 41.839 36.655C42.076 36.604 42.313 36.552 42.551 36.504C42.806 36.453 43.06 36.403 43.315 36.354C43.59 36.302 43.865 36.253 44.14 36.204C44.439 36.153 44.738 36.103 45.038 36.055C45.365 36.002 45.692 35.953 46.02 35.907C46.377 35.855 46.734 35.809 47.091 35.764C47.481 35.715 47.872 35.67 48.263 35.628C48.69 35.583 49.118 35.541 49.545 35.505C50.015 35.463 50.485 35.428 50.954 35.396C51.471 35.361 51.987 35.333 52.504 35.311C53.073 35.286 53.642 35.268 54.212 35.256C54.841 35.244 55.472 35.242 56.101 35.247C56.104 35.247 56.107 35.248 56.11 35.248C56.115 35.248 56.118 35.247 56.122 35.247L56.262 35.248H56.32C56.994 35.255 57.669 35.274 58.341 35.302C59.075 35.333 59.81 35.379 60.523 35.439C61.276 35.501 62.03 35.58 62.764 35.673C63.374 35.752 63.982 35.841 64.589 35.941C64.868 35.986 65.053 36.236 65.051 36.515C65.052 36.538 65.062 36.558 65.06 36.58L65.053 36.582C65.052 36.586 65.055 36.592 65.053 36.598C65.052 36.606 65.049 36.613 65.047 36.621C65.049 36.629 65.051 36.637 65.052 36.645H65.06C65.06 36.654 65.058 36.661 65.057 36.668C65.057 36.674 65.06 36.682 65.06 36.689L65.049 38.164L65.431 38.005L65.436 37.255C65.437 37.102 65.497 36.959 65.601 36.851C65.707 36.745 65.85 36.686 66 36.687L66.533 36.691C66.668 36.692 66.785 36.746 66.88 36.827C66.981 36.732 67.114 36.673 67.259 36.674L67.98 36.679C68.127 36.68 68.27 36.741 68.375 36.85C68.479 36.958 68.538 37.105 68.537 37.256L68.529 38.591L69.428 38.598C69.738 38.601 69.988 38.859 69.985 39.176ZM38.425 40.719C38.422 40.71 38.419 40.701 38.419 40.692H38.413C38.413 40.691 38.413 40.622 38.413 40.621L38.419 39.641C34.354 39.962 30.24 40.31 26.18 40.68C24.709 40.816 23.239 40.952 21.769 41.094C21.765 41.094 21.761 41.094 21.758 41.095L21.343 41.13C20.734 41.236 20.126 41.344 19.518 41.453C19.268 41.498 19.02 41.545 18.77 41.59C19.279 41.595 19.786 41.597 20.286 41.597C20.751 41.597 21.216 41.595 21.683 41.59C21.686 41.59 21.691 41.588 21.694 41.588C23.163 41.589 24.645 41.571 26.098 41.533C30.185 41.428 34.327 41.163 38.417 40.751C38.419 40.739 38.422 40.73 38.425 40.719ZM15.621 44.202C15.822 44.227 16.023 44.249 16.222 44.272C16.443 44.295 16.665 44.317 16.886 44.338C17.128 44.362 17.371 44.382 17.615 44.402C17.882 44.423 18.148 44.443 18.414 44.46C18.708 44.479 19.001 44.497 19.294 44.511C19.616 44.526 19.939 44.539 20.262 44.551C20.619 44.562 20.976 44.57 21.333 44.576L21.685 44.58L21.783 44.582C21.784 44.582 21.785 44.582 21.785 44.582L22.26 44.584C22.7 44.585 23.141 44.583 23.581 44.575C24.077 44.565 24.571 44.551 25.066 44.532C25.619 44.51 26.172 44.48 26.726 44.446C27.302 44.409 27.878 44.365 28.454 44.313C28.985 44.266 29.516 44.213 30.048 44.151C30.516 44.099 30.984 44.04 31.452 43.976C31.866 43.919 32.282 43.856 32.698 43.791C33.068 43.733 33.437 43.672 33.806 43.605C34.138 43.544 34.468 43.485 34.799 43.42C35.094 43.362 35.389 43.301 35.685 43.237C35.951 43.181 36.218 43.121 36.485 43.06C36.728 43.003 36.971 42.946 37.216 42.887C37.434 42.834 37.653 42.779 37.871 42.723C38.052 42.678 38.231 42.63 38.413 42.582L38.411 41.923C34.396 42.319 30.337 42.577 26.329 42.681C24.854 42.719 23.364 42.737 21.901 42.736C21.363 42.74 20.826 42.744 20.288 42.744C18.985 42.745 17.649 42.731 16.316 42.706C15.548 42.691 14.781 42.667 14.013 42.643L14.002 43.969L15.621 44.202ZM13.95 40.434C16.519 40.145 19.109 39.872 21.665 39.625L22.155 39.578L22.43 39.531C23.227 39.396 24.024 39.263 24.822 39.132C24.858 39.126 24.895 39.12 24.931 39.115C23.975 39.111 23.018 39.115 22.062 39.127L21.724 39.133C21.724 39.133 21.721 39.132 21.72 39.132L21.718 39.133C19.138 39.146 16.533 39.231 13.956 39.373L13.95 40.434ZM34.805 37.494C34.476 37.423 34.147 37.357 33.819 37.294C33.449 37.222 33.082 37.154 32.712 37.09C32.299 37.018 31.886 36.952 31.471 36.888C31.006 36.818 30.539 36.752 30.074 36.692C29.544 36.623 29.014 36.563 28.483 36.507C27.911 36.444 27.336 36.393 26.761 36.35C26.21 36.305 25.658 36.269 25.106 36.238C24.613 36.211 24.119 36.19 23.626 36.173C23.186 36.159 22.747 36.15 22.307 36.145L21.874 36.14C21.873 36.14 21.873 36.14 21.873 36.14H21.733L21.384 36.139C21.026 36.139 20.67 36.144 20.314 36.148C19.991 36.154 19.669 36.163 19.347 36.173C19.054 36.183 18.763 36.197 18.469 36.212C18.203 36.224 17.936 36.241 17.671 36.257C17.428 36.274 17.184 36.293 16.942 36.312C16.721 36.328 16.501 36.346 16.28 36.369C16.081 36.388 15.88 36.408 15.68 36.429C15.498 36.448 15.317 36.468 15.136 36.49L14.062 36.634L14.048 38.222C16.592 38.085 19.162 38.001 21.705 37.986H21.708C21.709 37.986 21.711 37.986 21.711 37.986L22.046 37.981C23.072 37.967 24.098 37.963 25.123 37.967C26.271 37.972 27.417 37.989 28.564 38.018C29.51 38.042 30.455 38.075 31.401 38.114C32.068 38.016 32.735 37.918 33.401 37.823C33.996 37.739 34.591 37.659 35.187 37.578C35.06 37.55 34.933 37.52 34.805 37.494ZM36.497 38.555C35.947 38.628 35.393 38.706 34.841 38.782C36.038 38.683 37.235 38.584 38.425 38.489L38.426 38.313C37.784 38.391 37.141 38.47 36.497 38.555ZM39.533 42.59C39.602 42.609 39.671 42.628 39.738 42.647L39.824 42.672C39.827 42.672 39.828 42.672 39.828 42.672L40.289 42.797C40.469 42.846 40.651 42.894 40.834 42.942C41.03 42.992 41.228 43.041 41.424 43.09C41.639 43.143 41.855 43.195 42.071 43.245C42.301 43.298 42.535 43.351 42.767 43.402C43.015 43.458 43.263 43.508 43.513 43.561C43.782 43.615 44.049 43.668 44.317 43.718C44.611 43.775 44.903 43.828 45.196 43.879C45.516 43.936 45.836 43.988 46.156 44.038C46.507 44.093 46.856 44.145 47.206 44.194C47.588 44.248 47.971 44.297 48.354 44.345C48.772 44.395 49.193 44.442 49.612 44.485C50.073 44.532 50.533 44.575 50.994 44.612C51.501 44.653 52.008 44.688 52.514 44.718C53.073 44.751 53.632 44.777 54.19 44.796C54.809 44.817 55.427 44.83 56.044 44.833C56.053 44.833 56.062 44.839 56.071 44.839C56.079 44.839 56.086 44.834 56.096 44.834H56.206H56.208C56.923 44.837 57.583 44.83 58.243 44.811C58.965 44.79 59.683 44.755 60.378 44.709C61.111 44.659 61.848 44.591 62.568 44.512C63.006 44.462 63.441 44.401 63.877 44.339L63.887 43.016C63.192 43.027 62.497 43.036 61.801 43.041C60.47 43.047 59.134 43.04 57.829 43.02C57.292 43.011 56.754 43.001 56.216 42.989C54.745 42.968 53.255 42.927 51.789 42.869C47.725 42.705 43.605 42.38 39.533 41.911V42.59ZM39.548 38.331L39.546 38.498C40.472 38.585 41.406 38.676 42.337 38.766L39.548 38.331ZM39.54 39.649L39.535 40.672C39.535 40.686 39.529 40.697 39.528 40.71H39.535C39.535 40.712 39.534 40.736 39.534 40.759C43.62 41.233 47.753 41.558 51.832 41.723C53.29 41.783 54.77 41.822 56.233 41.842C56.235 41.842 56.236 41.843 56.237 41.843C56.237 41.843 56.24 41.842 56.241 41.842C56.775 41.854 57.31 41.866 57.845 41.874C58.282 41.881 58.728 41.884 59.173 41.887C58.739 41.802 58.305 41.714 57.869 41.63L56.626 41.392L56.195 41.35C56.195 41.35 56.195 41.349 56.193 41.349C56.193 41.349 56.191 41.35 56.19 41.349C54.716 41.185 53.244 41.024 51.771 40.869C47.706 40.439 43.596 40.029 39.54 39.649ZM62.627 36.811C61.909 36.72 61.171 36.641 60.434 36.582C59.736 36.524 59.015 36.477 58.295 36.448C57.634 36.419 56.973 36.402 56.309 36.395C56.299 36.395 56.289 36.389 56.279 36.388C56.269 36.389 56.262 36.395 56.253 36.395L56.113 36.393C56.112 36.393 56.112 36.393 56.111 36.393C55.465 36.388 54.851 36.391 54.235 36.403C53.674 36.412 53.114 36.432 52.554 36.456C52.045 36.477 51.537 36.507 51.029 36.541C50.566 36.572 50.105 36.606 49.643 36.647C49.222 36.683 48.801 36.724 48.38 36.77C47.996 36.81 47.612 36.854 47.229 36.902C46.877 36.945 46.526 36.992 46.176 37.042C45.854 37.088 45.533 37.137 45.212 37.187C44.917 37.234 44.622 37.282 44.33 37.335C44.059 37.382 43.789 37.43 43.521 37.482C43.272 37.528 43.021 37.578 42.771 37.628C42.755 37.633 42.739 37.635 42.722 37.64L45.652 38.074L46.573 38.224L46.676 38.223C47.624 38.197 48.574 38.178 49.524 38.17C50.592 38.16 51.66 38.16 52.728 38.17C53.906 38.182 55.08 38.205 56.257 38.241C58.804 38.292 61.376 38.414 63.923 38.588L63.937 37.003C63.5 36.935 63.065 36.867 62.627 36.811ZM56.237 39.388L56.236 39.386C56.235 39.386 56.235 39.388 56.235 39.388C55.175 39.354 54.117 39.337 53.055 39.324C53.534 39.409 54.012 39.494 54.491 39.583C54.949 39.666 55.409 39.75 55.868 39.836C55.873 39.836 55.877 39.834 55.882 39.835L56.311 39.882C58.916 40.171 61.533 40.487 64.108 40.816L64.114 39.899C64.114 39.893 64.112 39.889 64.112 39.884C64.112 39.869 64.113 39.857 64.114 39.846V39.843L64.115 39.749C61.499 39.564 58.853 39.44 56.237 39.388ZM65.242 39.321C65.242 39.332 65.242 39.375 65.241 39.375C65.241 39.376 65.241 39.439 65.241 39.44L65.24 39.504C65.24 39.509 65.237 39.513 65.237 39.519V39.55C65.237 39.553 65.24 39.557 65.24 39.563L65.239 39.708C65.239 39.71 65.237 39.711 65.237 39.712C65.237 39.716 65.237 39.719 65.237 39.72V39.725L65.239 39.726H65.237L65.236 39.803C65.236 39.805 65.237 39.874 65.237 39.875C65.237 39.88 65.236 39.882 65.236 39.887V39.889C65.236 39.893 65.237 39.898 65.237 39.901L65.234 40.795C65.234 40.801 65.234 40.815 65.234 40.816C65.234 40.817 65.233 40.901 65.233 40.903C65.233 40.905 65.233 40.94 65.233 40.964V41.046C65.233 41.053 65.234 41.058 65.233 41.063V41.123C65.233 41.126 65.233 41.188 65.233 41.188V41.253L65.228 41.254V41.291C65.228 41.297 65.232 41.304 65.232 41.311L65.23 41.458C65.23 41.461 65.228 41.466 65.228 41.469C65.228 41.472 65.228 41.472 65.228 41.472V41.637C65.228 41.639 65.228 41.64 65.228 41.641V41.745C65.228 41.745 65.228 41.748 65.228 41.75V41.907C65.228 41.907 65.226 41.912 65.226 41.914H65.228C65.228 41.924 65.226 41.991 65.226 42.001C65.226 42.004 65.223 42.007 65.223 42.01C65.224 42.021 65.222 42.03 65.223 42.04L65.407 42.119L65.424 39.247L65.242 39.321ZM68.523 39.737L68.517 40.705L68.512 41.673L68.85 41.674L68.861 39.74L68.523 39.737Z" clip-rule="evenodd" fill-rule="evenodd"></path>
</g>
<defs>
<clipPath id="clip0_115_2889">
<rect fill="white" height="80" width="78"></rect>
</clipPath>
</defs>
</svg>
