<svg xmlns="http://www.w3.org/2000/svg" fill="none" viewBox="0 0 78 80" height="80" width="78">
<g clip-path="url(#clip0_115_2892)">
<path fill="#44444A" d="M9.999 0H67.999C73.523 0 78 4.476 78 9.999V70C78 75.523 73.523 79.999 67.999 79.999H9.999C4.477 79.999 0 75.523 0 70V9.999C0 4.476 4.477 0 9.999 0Z" clip-rule="evenodd" fill-rule="evenodd"></path>
<path fill="white" d="M53.932 35.153C51.249 35.153 49.073 33.017 49.073 30.38C49.073 27.745 51.249 19.995 53.932 19.995C56.616 19.995 58.792 27.745 58.792 30.38C58.792 33.017 56.616 35.153 53.932 35.153ZM55.394 25.742C54.84 24.133 54.297 23.18 53.932 22.684C53.568 23.18 53.025 24.133 52.471 25.742C51.817 27.643 51.463 29.551 51.463 30.38C51.463 31.718 52.571 32.806 53.932 32.806C55.293 32.806 56.402 31.718 56.402 30.38C56.402 29.551 56.049 27.643 55.394 25.742ZM50.361 36.786C51.3 39.317 51.181 42.056 50.023 44.498C49.177 46.281 47.852 47.748 46.194 48.77L46.526 49.34C46.721 49.674 46.474 50.091 46.082 50.091H46.08L43.999 50.081L41.92 50.073C41.527 50.07 41.283 49.651 41.481 49.318L42.528 47.554L43.577 45.789C43.676 45.622 43.847 45.539 44.019 45.539C44.192 45.539 44.364 45.624 44.462 45.793L45.007 46.73C46.238 45.948 47.223 44.845 47.856 43.507C48.744 41.633 48.837 39.532 48.116 37.59C47.891 36.982 48.21 36.307 48.83 36.085C49.45 35.863 50.136 36.178 50.361 36.786ZM45.987 33.106C45.968 33.106 45.948 33.105 45.928 33.103L43.86 32.87L41.794 32.637C41.404 32.593 41.208 32.151 41.442 31.839L41.911 31.218C38.624 29.833 34.672 30.791 32.461 33.74C32.227 34.052 31.864 34.217 31.497 34.217C31.252 34.217 31.004 34.142 30.79 33.989C30.259 33.604 30.145 32.868 30.537 32.347C33.534 28.352 38.984 27.16 43.363 29.294L43.919 28.558C44.023 28.419 44.176 28.354 44.329 28.354C44.52 28.354 44.711 28.458 44.798 28.656L45.625 30.532L46.454 32.405C46.602 32.741 46.348 33.106 45.987 33.106ZM38.876 35.939C41.349 35.939 43.362 37.914 43.362 40.343C43.362 42.772 41.349 44.749 38.876 44.749C36.403 44.749 34.39 42.772 34.39 40.343C34.39 37.914 36.403 35.939 38.876 35.939ZM38.876 42.4C40.031 42.4 40.971 41.479 40.971 40.343C40.971 39.209 40.031 38.285 38.876 38.285C37.72 38.285 36.78 39.209 36.78 40.343C36.78 41.479 37.72 42.4 38.876 42.4ZM35.516 47.917C36.168 48.023 36.608 48.628 36.5 49.266C36.403 49.841 35.897 50.25 35.323 50.25C35.258 50.25 35.193 50.245 35.126 50.233C32.421 49.795 30.05 48.347 28.452 46.157C27.363 44.665 26.724 42.949 26.567 41.165L25.75 41.152C25.358 41.145 25.119 40.724 25.322 40.391L26.393 38.641L27.465 36.889C27.564 36.727 27.733 36.647 27.902 36.647C28.077 36.647 28.252 36.732 28.349 36.905L29.358 38.692L30.367 40.479C30.555 40.814 30.308 41.221 29.919 41.221C29.916 41.221 29.913 41.221 29.91 41.221L28.975 41.208C29.131 42.486 29.611 43.713 30.396 44.79C31.622 46.471 33.439 47.581 35.516 47.917ZM44.195 24.644C42.399 24.072 40.52 23.804 38.613 23.846C34.123 23.948 29.942 25.759 26.839 28.949C23.737 32.14 22.086 36.325 22.189 40.734C22.292 45.144 24.136 49.252 27.385 52.298C30.632 55.344 34.893 56.968 39.384 56.865C43.874 56.765 48.055 54.953 51.158 51.763C54.26 48.573 55.912 44.388 55.809 39.978C55.788 39.113 56.486 38.397 57.366 38.378C58.249 38.361 58.974 39.042 58.994 39.906C59.117 45.151 57.152 50.13 53.462 53.924C49.773 57.719 44.798 59.875 39.456 59.995C39.3 59.998 39.143 59.999 38.987 59.999C33.818 59.999 28.933 58.078 25.183 54.562C21.32 50.937 19.125 46.052 19.003 40.807C18.881 35.56 20.845 30.583 24.535 26.788C28.226 22.993 33.199 20.838 38.541 20.717C40.805 20.666 43.041 20.986 45.179 21.669C46.015 21.935 46.473 22.818 46.201 23.639C45.93 24.462 45.031 24.911 44.195 24.644Z" clip-rule="evenodd" fill-rule="evenodd"></path>
</g>
<defs>
<clipPath id="clip0_115_2892">
<rect fill="white" height="80" width="78"></rect>
</clipPath>
</defs>
</svg>
