<svg xmlns="http://www.w3.org/2000/svg" fill="none" viewBox="0 0 78 80" height="80" width="78">
<g clip-path="url(#clip0_115_2883)">
<path fill="#44444A" d="M10 0H68C73.522 0 78 4.476 78 9.999V70C78 75.523 73.522 79.999 68 79.999H10C4.477 79.999 0 75.523 0 70V9.999C0 4.476 4.477 0 10 0Z" clip-rule="evenodd" fill-rule="evenodd"></path>
<path fill="white" d="M58.609 58.895C57.805 58.895 57.153 58.233 57.153 57.421V22.572C57.153 21.758 57.805 21.098 58.609 21.098C59.412 21.098 60.064 21.758 60.064 22.572V57.421C60.064 58.233 59.412 58.895 58.609 58.895ZM51.812 55.397C51.726 55.401 51.641 55.402 51.557 55.402C50.158 55.402 48.831 54.882 47.792 53.922C47.307 53.472 46.91 52.95 46.613 52.376C43.674 55.134 39.741 56.819 35.417 56.819C26.313 56.819 18.933 49.348 18.933 40.133C18.933 30.919 26.313 23.448 35.417 23.448C44.521 23.448 51.901 30.919 51.901 40.133C51.901 41.499 51.738 42.823 51.433 44.097C52.882 44.061 54.26 44.583 55.331 45.573C56.432 46.594 57.076 47.986 57.143 49.495C57.28 52.609 54.889 55.256 51.812 55.397ZM35.417 26.394C27.933 26.394 21.844 32.558 21.844 40.133C21.844 47.71 27.933 53.873 35.417 53.873C42.902 53.873 48.99 47.71 48.99 40.133C48.99 32.558 42.902 26.394 35.417 26.394ZM54.717 46.253C53.796 45.4 52.598 44.961 51.352 45.019C51.293 45.021 51.237 45.027 51.179 45.031C50.412 47.563 49.067 49.838 47.298 51.698C47.556 52.276 47.93 52.801 48.406 53.241C49.327 54.095 50.524 54.533 51.771 54.477C54.347 54.36 56.349 52.143 56.233 49.536C56.178 48.272 55.639 47.106 54.717 46.253ZM51.619 51.143C51.599 51.143 51.578 51.144 51.558 51.144C51.219 51.144 50.896 51.018 50.644 50.786C50.377 50.537 50.221 50.2 50.204 49.834C50.189 49.466 50.313 49.116 50.558 48.844C50.802 48.575 51.136 48.416 51.499 48.401C51.859 48.386 52.206 48.511 52.475 48.76C52.742 49.007 52.897 49.344 52.914 49.711C52.93 50.077 52.804 50.427 52.56 50.698C52.316 50.969 51.982 51.127 51.619 51.143ZM51.86 49.438C51.778 49.362 51.671 49.321 51.56 49.321C51.553 49.321 51.546 49.321 51.539 49.321C51.293 49.331 51.102 49.543 51.114 49.793C51.118 49.912 51.169 50.021 51.258 50.105C51.345 50.185 51.461 50.231 51.579 50.224C51.826 50.213 52.016 50.001 52.006 49.752C51.999 49.629 51.948 49.519 51.86 49.438ZM35.417 39.59C33.258 39.59 31.502 37.812 31.502 35.628C31.502 33.442 33.258 31.664 35.417 31.664C37.576 31.664 39.333 33.442 39.333 35.628C39.333 37.812 37.576 39.59 35.417 39.59ZM35.417 33.506C34.262 33.506 33.321 34.457 33.321 35.628C33.321 36.797 34.262 37.749 35.417 37.749C36.574 37.749 37.513 36.797 37.513 35.628C37.513 34.457 36.574 33.506 35.417 33.506ZM36.975 30.088H33.345C32.982 30.088 32.687 29.787 32.687 29.42C32.687 29.055 32.982 28.754 33.345 28.754H36.975C37.337 28.754 37.632 29.055 37.632 29.42C37.632 29.787 37.337 30.088 36.975 30.088ZM42.949 55.943C44.173 57.559 46.34 58.019 48.077 57.145L47.73 56.714C47.605 56.557 47.693 56.322 47.89 56.289L48.931 56.121L49.972 55.952C49.986 55.95 50 55.949 50.014 55.949C50.191 55.949 50.321 56.129 50.255 56.303L49.879 57.301L49.503 58.297C49.462 58.406 49.362 58.465 49.26 58.465C49.187 58.465 49.113 58.436 49.06 58.368L48.662 57.872C47.903 58.294 47.07 58.503 46.241 58.503C44.722 58.503 43.221 57.816 42.227 56.507C42.075 56.303 42.112 56.015 42.312 55.86C42.51 55.705 42.797 55.742 42.949 55.943Z" clip-rule="evenodd" fill-rule="evenodd"></path>
</g>
<defs>
<clipPath id="clip0_115_2883">
<rect fill="white" height="80" width="78"></rect>
</clipPath>
</defs>
</svg>
