<svg xmlns="http://www.w3.org/2000/svg" fill="none" viewBox="0 0 78 80" height="80" width="78">
<g clip-path="url(#clip0_115_2886)">
<path fill="#44444A" d="M10 0H68C73.523 0 78 4.476 78 9.999V70C78 75.523 73.523 79.999 68 79.999H10C4.477 79.999 0 75.523 0 70V9.999C0 4.476 4.477 0 10 0Z" clip-rule="evenodd" fill-rule="evenodd"></path>
<path fill="white" d="M54.263 64.9H51.107V64.956C51.107 65.457 50.696 65.868 50.196 65.868H48.67C48.168 65.868 47.757 65.457 47.757 64.956V64.9H31.087V64.956C31.087 65.457 30.677 65.868 30.176 65.868H28.649C28.147 65.868 27.736 65.457 27.736 64.956V64.9H24.732C23.632 64.9 22.742 64.009 22.742 62.909V56.025C22.742 54.926 23.632 54.033 24.732 54.033H24.899V19.735C24.899 17.194 26.965 15.126 29.505 15.126H49.742C52.283 15.126 54.349 17.194 54.349 19.735V54.038C55.408 54.083 56.254 54.954 56.254 56.025V62.909C56.254 64.009 55.363 64.9 54.263 64.9ZM51.063 19.735C51.063 19.007 50.47 18.413 49.742 18.413H29.505C28.777 18.413 28.184 19.007 28.184 19.735V47.726C29.475 46.799 31.055 46.252 32.762 46.252H46.47C48.183 46.252 49.769 46.802 51.063 47.737V19.735ZM36.384 52.873H42.574C43.095 52.873 43.524 53.301 43.524 53.824V53.987C43.524 54.004 43.52 54.018 43.519 54.033H51.043C50.997 51.548 48.965 49.539 46.47 49.539H32.762C30.266 49.539 28.234 51.548 28.19 54.033H35.438C35.438 54.018 35.434 54.004 35.434 53.987V53.824C35.434 53.301 35.862 52.873 36.384 52.873ZM53.907 56.381H25.089V62.552H53.907V56.381ZM36.812 57.478H42.146C42.648 57.478 43.057 57.889 43.057 58.391V58.547C43.057 59.049 42.648 59.46 42.146 59.46H36.812C36.31 59.46 35.9 59.049 35.9 58.547V58.391C35.9 57.889 36.31 57.478 36.812 57.478Z" clip-rule="evenodd" fill-rule="evenodd"></path>
</g>
<defs>
<clipPath id="clip0_115_2886">
<rect fill="white" height="80" width="78"></rect>
</clipPath>
</defs>
</svg>
